<svg width="80" height="72" viewBox="0 0 80 72" fill="none" xmlns="http://www.w3.org/2000/svg">
<ellipse cx="40" cy="36" rx="40" ry="36" fill="white"/>
<path d="M2.49 35.97C2.29 35.85 2.16 35.69 2.1 35.49C2.02 35.29 1.92 35.1 1.8 34.92V34.83C1.8 34.73 1.79 34.63 1.77 34.53C1.75 34.45 1.74 34.37 1.74 34.29V33.81L2.1 34.08L2.16 34.05L2.34 33.78L2.49 33.75L2.61 33.6C3.07 33.4 3.45 33.23 3.75 33.09C4.03 32.97 4.37 32.75 4.77 32.43L4.83 32.4C4.69 32.58 4.59 32.77 4.53 32.97C4.47 33.17 4.36 33.35 4.2 33.51L4.17 33.69L4.29 33.84C4.71 33.68 5.2 33.26 5.76 32.58C6.32 31.9 6.9 31.08 7.5 30.12C8.1 29.16 8.67 28.17 9.21 27.15C9.75 26.11 10.2 25.16 10.56 24.3C10.94 23.44 11.18 22.78 11.28 22.32L11.22 22.23L11.04 22.44L10.92 21.78C10.74 21.8 10.63 21.7 10.59 21.48C10.55 21.24 10.53 21 10.53 20.76C10.53 20.56 10.52 20.39 10.5 20.25C10.5 20.09 10.47 20.01 10.41 20.01L10.35 19.77L10.47 19.35L11.52 19.14V18.57C11.6 18.29 11.56 18.05 11.4 17.85C11.26 17.63 11.14 17.41 11.04 17.19C11.04 17.05 11.12 16.85 11.28 16.59C11.44 16.31 11.6 16.17 11.76 16.17L11.91 16.23C12.03 16.69 12.13 17.15 12.21 17.61C12.31 18.07 12.38 18.54 12.42 19.02H12.54C12.7 19.02 12.8 19.05 12.84 19.11C12.88 19.17 12.9 19.29 12.9 19.47C12.9 20.13 12.99 20.78 13.17 21.42C13.37 22.06 13.47 22.72 13.47 23.4C13.47 23.66 13.55 24.1 13.71 24.72C13.87 25.32 14.08 25.95 14.34 26.61C14.6 27.25 14.88 27.81 15.18 28.29C15.5 28.75 15.82 28.98 16.14 28.98H16.47C16.69 28.8 16.9 28.64 17.1 28.5C17.3 28.34 17.5 28.17 17.7 27.99C17.92 27.79 18.03 27.65 18.03 27.57C18.05 27.49 18.09 27.32 18.15 27.06C18.19 26.9 18.25 26.76 18.33 26.64C18.43 26.5 18.5 26.36 18.54 26.22C19.16 24.86 19.68 23.43 20.1 21.93C20.54 20.41 20.76 18.91 20.76 17.43L20.58 17.01C20.42 17.09 20.25 17.17 20.07 17.25C19.89 17.31 19.75 17.42 19.65 17.58L19.47 17.67L19.23 17.64C18.87 17.96 18.5 18.27 18.12 18.57C17.76 18.85 17.41 19.16 17.07 19.5L16.92 19.44C17.04 19.26 17.25 18.99 17.55 18.63C17.85 18.27 18.19 17.89 18.57 17.49C18.95 17.07 19.31 16.67 19.65 16.29C19.99 15.89 20.25 15.56 20.43 15.3C20.53 15.26 20.62 15.22 20.7 15.18C20.8 15.14 20.89 15.12 20.97 15.12C21.37 15.12 21.67 15.26 21.87 15.54C22.07 15.82 22.17 16.14 22.17 16.5C22.17 17 22.1 17.48 21.96 17.94C21.82 18.4 21.77 18.89 21.81 19.41L21.69 19.62H21.54L21.57 19.35L21.51 19.26C21.47 19.54 21.34 19.86 21.12 20.22C20.92 20.58 20.87 20.89 20.97 21.15L20.73 21.48C20.77 21.56 20.79 21.66 20.79 21.78C20.79 22.46 20.66 23.13 20.4 23.79C20.14 24.43 19.87 25.08 19.59 25.74C19.33 26.38 19.2 27.05 19.2 27.75C19.2 27.89 19.25 28.01 19.35 28.11C19.45 28.19 19.5 28.3 19.5 28.44C19.5 28.76 19.39 29.15 19.17 29.61C18.97 30.07 18.71 30.49 18.39 30.87C18.09 31.27 17.79 31.56 17.49 31.74L17.01 31.77C16.81 31.79 16.56 31.75 16.26 31.65C15.98 31.57 15.76 31.44 15.6 31.26V31.2L15.33 31.23C14.97 31.27 14.61 31.12 14.25 30.78C13.91 30.44 13.59 30.01 13.29 29.49C13.01 28.97 12.78 28.45 12.6 27.93C12.44 27.41 12.36 26.99 12.36 26.67C12.36 26.65 12.38 26.58 12.42 26.46C12.46 26.34 12.49 26.26 12.51 26.22L12.39 26.07L12.33 26.1L12.09 25.53L12.24 25.17L11.94 24.75H11.91C11.75 24.75 11.63 24.68 11.55 24.54C11.49 24.4 11.44 24.26 11.4 24.12C11.32 24.34 11.18 24.68 10.98 25.14C10.78 25.58 10.56 26.06 10.32 26.58C10.08 27.08 9.85 27.54 9.63 27.96C9.41 28.38 9.24 28.67 9.12 28.83L9.15 28.86C9.05 29 8.95 29.14 8.85 29.28C8.77 29.42 8.68 29.57 8.58 29.73L8.61 29.76L8.55 29.88C8.47 29.98 8.39 30.08 8.31 30.18C8.25 30.28 8.18 30.39 8.1 30.51C7.88 30.95 7.55 31.45 7.11 32.01C6.69 32.57 6.21 33.12 5.67 33.66C5.13 34.22 4.58 34.7 4.02 35.1C3.46 35.52 2.95 35.81 2.49 35.97ZM21.27 20.61L21.18 20.49C21.2 20.43 21.23 20.37 21.27 20.31C21.33 20.23 21.38 20.17 21.42 20.13L21.36 19.95L21.45 19.89H21.6C21.58 20.03 21.55 20.16 21.51 20.28C21.47 20.4 21.39 20.51 21.27 20.61ZM20.97 21.66C20.97 21.52 20.99 21.39 21.03 21.27C21.09 21.15 21.16 21.03 21.24 20.91L21.27 21.06C21.25 21.18 21.21 21.29 21.15 21.39C21.11 21.47 21.05 21.56 20.97 21.66ZM15.84 30.06L15.87 29.97L15.84 29.82L15.75 30.03L15.84 30.06ZM5.04 32.31L5.1 32.13L5.19 32.19L5.25 32.31H5.04ZM22.7534 30.21C22.5734 30.21 22.3534 30.09 22.0934 29.85C21.8534 29.61 21.6534 29.43 21.4934 29.31C21.4534 29.05 21.3834 28.82 21.2834 28.62C21.1834 28.4 21.1334 28.17 21.1334 27.93C21.1334 27.57 21.2634 27.15 21.5234 26.67C21.8034 26.17 22.1534 25.68 22.5734 25.2C23.0134 24.72 23.4534 24.32 23.8934 24C24.3534 23.68 24.7634 23.52 25.1234 23.52V23.46C25.4034 23.52 25.6634 23.7 25.9034 24C26.1634 24.3 26.2934 24.58 26.2934 24.84C26.2934 25.08 26.1434 25.33 25.8434 25.59C25.5634 25.83 25.2134 26.06 24.7934 26.28C24.3934 26.48 23.9934 26.64 23.5934 26.76C23.2134 26.88 22.9134 26.94 22.6934 26.94V27C22.5534 27.22 22.4134 27.5 22.2734 27.84C22.1534 28.16 22.0934 28.46 22.0934 28.74C22.0934 28.84 22.1234 28.95 22.1834 29.07C22.3234 29.17 22.5034 29.22 22.7234 29.22C22.9434 29.2 23.1234 29.2 23.2634 29.22L23.2934 29.25L23.3834 29.1C23.6434 29.08 23.8934 29.02 24.1334 28.92V28.74H24.3134V28.65L24.4334 28.68C24.5334 28.64 24.6034 28.6 24.6434 28.56C24.7034 28.5 24.7734 28.45 24.8534 28.41L25.0334 28.5V28.47L25.5734 27.96H25.6034L25.6934 28.02V27.99C25.9534 27.75 26.2334 27.53 26.5334 27.33C26.8334 27.13 27.0534 26.87 27.1934 26.55L27.5234 26.31L27.5834 26.37C27.5834 26.51 27.5334 26.64 27.4334 26.76C27.3334 26.88 27.2134 26.96 27.0734 27C26.9134 27.38 26.6734 27.7 26.3534 27.96C26.0534 28.22 25.7434 28.49 25.4234 28.77H25.3334L25.3034 28.92C24.9234 29.18 24.5234 29.46 24.1034 29.76C23.7034 30.06 23.2534 30.21 22.7534 30.21ZM23.3234 26.37H23.3834V26.31C23.5234 26.27 23.7634 26.15 24.1034 25.95C24.4634 25.75 24.8034 25.54 25.1234 25.32C25.4434 25.08 25.6134 24.91 25.6334 24.81H25.6634L25.6334 24.66L25.6634 24.51C25.6434 24.51 25.6034 24.51 25.5434 24.51C25.4834 24.49 25.4334 24.48 25.3934 24.48C25.1334 24.66 24.8734 24.83 24.6134 24.99C24.3534 25.15 24.0934 25.31 23.8334 25.47H23.7734L23.7434 25.71C23.6234 25.79 23.5334 25.89 23.4734 26.01C23.4134 26.11 23.3634 26.23 23.3234 26.37ZM27.8834 26.28L27.7034 26.22L27.6734 26.04L27.9734 25.95L28.0034 26.04L27.8834 26.28ZM24.364 32.31C24.364 32.19 24.464 32.02 24.664 31.8C24.864 31.6 25.104 31.37 25.384 31.11C25.664 30.87 25.924 30.64 26.164 30.42C26.424 30.22 26.604 30.07 26.704 29.97C26.984 29.71 27.224 29.43 27.424 29.13C27.624 28.81 27.854 28.52 28.114 28.26L28.054 27.33C28.054 27.11 28.064 26.91 28.084 26.73C28.104 26.53 28.154 26.33 28.234 26.13C28.074 26.35 27.854 26.68 27.574 27.12C27.294 27.54 26.994 27.93 26.674 28.29C26.354 28.65 26.044 28.84 25.744 28.86C25.764 28.8 25.874 28.66 26.074 28.44C26.294 28.22 26.534 27.95 26.794 27.63C27.074 27.31 27.314 26.95 27.514 26.55C27.714 26.13 27.814 25.7 27.814 25.26C27.814 24.94 27.994 24.7 28.354 24.54C28.734 24.36 29.044 24.27 29.284 24.27C29.404 24.27 29.504 24.29 29.584 24.33C29.664 24.35 29.704 24.44 29.704 24.6C29.704 25 29.644 25.43 29.524 25.89C29.424 26.35 29.354 26.78 29.314 27.18C29.394 27.08 29.544 26.92 29.764 26.7C30.004 26.48 30.244 26.27 30.484 26.07C30.744 25.87 30.924 25.74 31.024 25.68C31.084 25.5 31.294 25.28 31.654 25.02C32.034 24.76 32.424 24.53 32.824 24.33C33.244 24.11 33.544 24 33.724 24L33.814 24.06C33.094 24.68 32.354 25.3 31.594 25.92C30.834 26.52 30.104 27.14 29.404 27.78C29.444 28.1 29.534 28.43 29.674 28.77C29.834 29.11 30.114 29.28 30.514 29.28C30.814 29.28 31.134 29.16 31.474 28.92C31.834 28.68 32.164 28.41 32.464 28.11C32.784 27.79 33.044 27.53 33.244 27.33L33.454 27.24L33.664 27L33.784 26.94L33.754 26.91C33.954 26.79 34.124 26.64 34.264 26.46C34.424 26.26 34.604 26.1 34.804 25.98V26.04C34.804 26.22 34.654 26.49 34.354 26.85C34.054 27.19 33.674 27.58 33.214 28.02C32.774 28.44 32.304 28.85 31.804 29.25C31.324 29.63 30.884 29.94 30.484 30.18C30.084 30.44 29.794 30.57 29.614 30.57C29.174 30.57 28.844 30.38 28.624 30C28.404 29.62 28.264 29.25 28.204 28.89C28.044 29.03 27.784 29.28 27.424 29.64C27.064 30 26.674 30.38 26.254 30.78C25.834 31.2 25.454 31.56 25.114 31.86C24.754 32.16 24.504 32.31 24.364 32.31ZM33.1493 31.26C32.8293 31.26 32.5693 31.12 32.3693 30.84C32.1693 30.58 32.0693 30.29 32.0693 29.97C32.0693 29.73 32.1393 29.37 32.2793 28.89C32.4393 28.39 32.6293 27.87 32.8493 27.33C33.0693 26.77 33.2993 26.27 33.5393 25.83C33.7793 25.39 33.9993 25.1 34.1993 24.96C34.4793 24.52 34.7293 24.11 34.9493 23.73C34.6293 23.79 34.3093 23.86 33.9893 23.94C33.6693 24 33.3693 24.09 33.0893 24.21C32.9493 24.39 32.7893 24.48 32.6093 24.48C32.5493 24.44 32.4793 24.4 32.3993 24.36C32.3193 24.32 32.2493 24.27 32.1893 24.21L32.2193 24.15H32.1893V24.09C32.1893 23.99 32.1693 23.9 32.1293 23.82C32.1093 23.72 32.0893 23.63 32.0693 23.55C32.0493 23.53 32.0393 23.48 32.0393 23.4C32.0393 23.14 32.1593 22.97 32.3993 22.89C32.6593 22.81 32.9193 22.77 33.1793 22.77C33.5593 22.77 33.8193 22.8 33.9593 22.86L34.2593 22.8H35.0093C35.1493 22.8 35.2793 22.8 35.3993 22.8C35.5193 22.8 35.6393 22.79 35.7593 22.77L35.8793 22.59L35.8493 22.47C35.9093 22.33 36.0393 22.1 36.2393 21.78C36.4393 21.46 36.6493 21.12 36.8693 20.76C37.0893 20.4 37.2793 20.09 37.4393 19.83C37.6193 19.55 37.7093 19.41 37.7093 19.41C37.7093 19.29 37.8093 19.22 38.0093 19.2C38.2093 19.18 38.3393 19.17 38.3993 19.17C38.6193 19.17 38.9193 19.24 39.2993 19.38C39.6793 19.5 39.8693 19.71 39.8693 20.01C39.8693 20.19 39.7993 20.34 39.6593 20.46C39.5193 20.56 39.3693 20.63 39.2093 20.67V20.7C39.2093 20.82 39.1193 20.96 38.9393 21.12C38.7793 21.28 38.5893 21.42 38.3693 21.54C38.1493 21.66 37.9793 21.74 37.8593 21.78C37.7993 21.8 37.7193 21.88 37.6193 22.02C37.5393 22.14 37.4793 22.23 37.4393 22.29V22.41C37.3593 22.47 37.2693 22.54 37.1693 22.62C37.0893 22.68 37.0193 22.76 36.9593 22.86C37.0593 22.88 37.1593 22.89 37.2593 22.89C37.3593 22.89 37.4593 22.89 37.5593 22.89C37.7193 22.89 37.8693 22.89 38.0093 22.89C38.1693 22.89 38.3193 22.9 38.4593 22.92L39.3893 23.04C39.1493 23.24 38.8793 23.36 38.5793 23.4C38.2793 23.42 37.9693 23.43 37.6493 23.43C37.3493 23.41 37.0593 23.46 36.7793 23.58C36.6393 23.62 36.4493 23.74 36.2093 23.94C35.9893 24.14 35.7893 24.36 35.6093 24.6C35.4293 24.82 35.3393 25.01 35.3393 25.17L34.6493 26.1C34.4493 26.2 34.3493 26.35 34.3493 26.55C34.3493 26.75 34.2393 26.85 34.0193 26.85L33.5993 27.81C33.5793 27.93 33.5493 28.12 33.5093 28.38C33.4893 28.62 33.4093 28.76 33.2693 28.8C33.2693 29.06 33.2593 29.32 33.2393 29.58C33.2193 29.82 33.2093 30.06 33.2093 30.3L33.2693 30.42H33.5093C33.9093 30.02 34.3193 29.64 34.7393 29.28C35.1793 28.9 35.5893 28.5 35.9693 28.08L36.1193 28.02H36.1793L36.3593 27.78L36.4793 27.72L36.4493 27.69L36.6293 27.54C36.7893 27.24 37.0493 26.99 37.4093 26.79L37.4393 26.85C37.4393 26.95 37.3093 27.17 37.0493 27.51C36.7893 27.83 36.4593 28.21 36.0593 28.65C35.6793 29.07 35.2793 29.48 34.8593 29.88C34.4593 30.28 34.0993 30.61 33.7793 30.87C33.4593 31.13 33.2493 31.26 33.1493 31.26ZM12.09 50.08L11.79 49.87L11.52 49.84L11.25 49.72L10.86 49.84C10.7 49.5 10.44 49.35 10.08 49.39C9.46 49.07 8.87 48.66 8.31 48.16C7.75 47.64 7.29 47.06 6.93 46.42C6.57 45.76 6.39 45.06 6.39 44.32C6.39 44.16 6.42 43.91 6.48 43.57C6.54 43.21 6.64 42.88 6.78 42.58C6.92 42.28 7.09 42.13 7.29 42.13C7.45 41.95 7.67 41.68 7.95 41.32C8.25 40.94 8.56 40.6 8.88 40.3C9.2 40 9.48 39.85 9.72 39.85C9.92 39.85 10.01 39.78 9.99 39.64C9.99 39.48 10.02 39.33 10.08 39.19C10.14 39.05 10.35 38.98 10.71 38.98C10.87 38.98 11 38.92 11.1 38.8C11.22 38.68 11.29 38.55 11.31 38.41L11.55 38.26L11.67 38.35C11.87 38.35 12.04 38.29 12.18 38.17C12.34 38.03 12.46 37.88 12.54 37.72L12.84 37.84C13.34 37.7 13.79 37.47 14.19 37.15C14.61 36.83 15.07 36.63 15.57 36.55L15.81 36.34C16.17 36.24 16.53 36.15 16.89 36.07C17.25 35.99 17.62 35.97 18 36.01C18.22 35.93 18.43 35.85 18.63 35.77C18.85 35.69 19.08 35.65 19.32 35.65C19.88 35.65 20.44 35.7 21 35.8C21.58 35.88 22.15 35.92 22.71 35.92C22.85 35.92 22.92 35.86 22.92 35.74C22.92 35.66 22.91 35.59 22.89 35.53C22.87 35.45 22.85 35.39 22.83 35.35L22.95 35.02L22.89 34.9C23.07 34.96 23.35 35.04 23.73 35.14C24.13 35.24 24.51 35.35 24.87 35.47C25.23 35.59 25.45 35.73 25.53 35.89L25.41 36.31L24.87 36.49L24.69 36.43C24.49 36.51 24.39 36.67 24.39 36.91C24.41 37.15 24.36 37.29 24.24 37.33L24 37.27H23.97L24.18 37.66L24.15 37.78L24.21 37.9L24.15 37.96L23.94 37.84C23.86 38 23.8 38.22 23.76 38.5C23.72 38.78 23.59 38.93 23.37 38.95C23.15 39.17 22.91 39.43 22.65 39.73C22.41 40.01 22.12 40.17 21.78 40.21V40.18L21.9 39.58L21.78 39.43C21.94 39.03 22.09 38.63 22.23 38.23C22.39 37.81 22.51 37.39 22.59 36.97C22.19 36.91 21.87 36.79 21.63 36.61C21.39 36.41 21.04 36.31 20.58 36.31C19.7 36.31 18.73 36.5 17.67 36.88C16.61 37.26 15.55 37.78 14.49 38.44C13.45 39.08 12.49 39.83 11.61 40.69C10.73 41.53 10.02 42.43 9.48 43.39C8.96 44.33 8.7 45.27 8.7 46.21C8.7 47.05 8.98 47.62 9.54 47.92C10.1 48.22 10.75 48.37 11.49 48.37C12.29 48.37 13.08 48.28 13.86 48.1C14.64 47.9 15.4 47.66 16.14 47.38C16.34 47.38 16.53 47.36 16.71 47.32C16.89 47.26 17.05 47.19 17.19 47.11V47.05L17.76 46.93L17.91 47.02L18 46.93V46.81L18.42 46.72L18.81 46.42L19.02 46.81L18.84 46.72L18.69 47.02L18.72 47.08C18.22 47.56 17.59 48.02 16.83 48.46C16.09 48.9 15.31 49.25 14.49 49.51C13.69 49.77 12.93 49.89 12.21 49.87L12.24 49.96L12.09 50.08ZM21.45 40.72L21.54 40.33L21.69 40.45L21.45 40.72ZM15.87 53.29C15.73 53.19 15.64 53.04 15.6 52.84C15.56 52.66 15.49 52.5 15.39 52.36C15.47 52.16 15.51 51.96 15.51 51.76C15.51 51.56 15.52 51.36 15.54 51.16L15.84 51.34L15.87 51.31L16.08 51.01L16.23 50.92L16.35 50.74C16.75 50.46 17.13 50.17 17.49 49.87C17.85 49.59 18.2 49.28 18.54 48.94H18.57C18.49 49.16 18.38 49.39 18.24 49.63C18.12 49.87 17.98 50.07 17.82 50.23L17.73 50.5L17.82 50.59C17.94 50.59 18.17 50.39 18.51 49.99C18.85 49.59 19.21 49.12 19.59 48.58C19.97 48.02 20.32 47.5 20.64 47.02C20.96 46.54 21.17 46.22 21.27 46.06C21.55 45.6 21.77 45.12 21.93 44.62C22.11 44.12 22.3 43.63 22.5 43.15C22.06 43.11 21.62 43.03 21.18 42.91C20.76 42.79 20.33 42.73 19.89 42.73C19.77 42.73 19.53 42.76 19.17 42.82C18.81 42.88 18.41 42.96 17.97 43.06C17.55 43.14 17.16 43.23 16.8 43.33C16.46 43.41 16.24 43.48 16.14 43.54C16 43.76 15.83 43.88 15.63 43.9C15.45 43.92 15.25 43.96 15.03 44.02C14.97 44.04 14.83 44.16 14.61 44.38C14.39 44.58 14.14 44.82 13.86 45.1C13.6 45.38 13.35 45.64 13.11 45.88C12.89 46.1 12.74 46.25 12.66 46.33L12.69 46.42L12.87 46.54L13.44 46.63L13.2 46.87C13.08 46.87 12.96 46.85 12.84 46.81C12.72 46.77 12.61 46.73 12.51 46.69C12.33 46.47 12.21 46.24 12.15 46C12.09 45.76 12.06 45.51 12.06 45.25C12.06 45.15 12.06 45.06 12.06 44.98C12.06 44.88 12.07 44.78 12.09 44.68L12 44.71L11.91 44.68L11.85 44.5C11.93 44.16 12.13 43.88 12.45 43.66C12.77 43.44 13.12 43.26 13.5 43.12C13.9 42.96 14.23 42.84 14.49 42.76L14.7 42.85L14.76 42.67C15.64 42.49 16.54 42.38 17.46 42.34C18.38 42.28 19.29 42.25 20.19 42.25C21.09 42.25 21.93 42.35 22.71 42.55C22.85 42.17 22.96 41.87 23.04 41.65C23.14 41.41 23.44 41.29 23.94 41.29C24.04 41.29 24.15 41.31 24.27 41.35C24.39 41.37 24.46 41.43 24.48 41.53L24.03 42.31L23.94 42.7C24.24 42.78 24.54 42.88 24.84 43C25.14 43.12 25.4 43.29 25.62 43.51V43.6L25.56 43.63C25.3 43.47 25.02 43.35 24.72 43.27C24.42 43.19 24.11 43.14 23.79 43.12C23.75 43.2 23.72 43.3 23.7 43.42C23.68 43.54 23.62 43.63 23.52 43.69L23.34 43.63C22.9 44.39 22.4 45.24 21.84 46.18C21.28 47.1 20.68 48.02 20.04 48.94C19.4 49.86 18.73 50.7 18.03 51.46C17.33 52.24 16.61 52.85 15.87 53.29ZM20.49 45.85L20.37 45.73V45.67C20.53 45.57 20.71 45.51 20.91 45.49C20.79 45.63 20.65 45.75 20.49 45.85ZM19.23 46.75L19.08 46.63C19.08 46.51 19.11 46.41 19.17 46.33C19.25 46.25 19.35 46.23 19.47 46.27L19.35 46.21C19.61 46.17 19.81 46.08 19.95 45.94H20.25L19.71 46.54V46.57L19.59 46.54L19.44 46.72L19.23 46.75ZM18.72 48.64L18.81 48.46L18.87 48.49L18.9 48.61L18.87 48.64H18.72ZM24.9799 49.21C24.7999 49.21 24.5799 49.09 24.3199 48.85C24.0799 48.61 23.8799 48.43 23.7199 48.31C23.6799 48.05 23.6099 47.82 23.5099 47.62C23.4099 47.4 23.3599 47.17 23.3599 46.93C23.3599 46.57 23.4899 46.15 23.7499 45.67C24.0299 45.17 24.3799 44.68 24.7999 44.2C25.2399 43.72 25.6799 43.32 26.1199 43C26.5799 42.68 26.9899 42.52 27.3499 42.52V42.46C27.6299 42.52 27.8899 42.7 28.1299 43C28.3899 43.3 28.5199 43.58 28.5199 43.84C28.5199 44.08 28.3699 44.33 28.0699 44.59C27.7899 44.83 27.4399 45.06 27.0199 45.28C26.6199 45.48 26.2199 45.64 25.8199 45.76C25.4399 45.88 25.1399 45.94 24.9199 45.94V46C24.7799 46.22 24.6399 46.5 24.4999 46.84C24.3799 47.16 24.3199 47.46 24.3199 47.74C24.3199 47.84 24.3499 47.95 24.4099 48.07C24.5499 48.17 24.7299 48.22 24.9499 48.22C25.1699 48.2 25.3499 48.2 25.4899 48.22L25.5199 48.25L25.6099 48.1C25.8699 48.08 26.1199 48.02 26.3599 47.92V47.74H26.5399V47.65L26.6599 47.68C26.7599 47.64 26.8299 47.6 26.8699 47.56C26.9299 47.5 26.9999 47.45 27.0799 47.41L27.2599 47.5V47.47L27.7999 46.96H27.8299L27.9199 47.02V46.99C28.1799 46.75 28.4599 46.53 28.7599 46.33C29.0599 46.13 29.2799 45.87 29.4199 45.55L29.7499 45.31L29.8099 45.37C29.8099 45.51 29.7599 45.64 29.6599 45.76C29.5599 45.88 29.4399 45.96 29.2999 46C29.1399 46.38 28.8999 46.7 28.5799 46.96C28.2799 47.22 27.9699 47.49 27.6499 47.77H27.5599L27.5299 47.92C27.1499 48.18 26.7499 48.46 26.3299 48.76C25.9299 49.06 25.4799 49.21 24.9799 49.21ZM25.5499 45.37H25.6099V45.31C25.7499 45.27 25.9899 45.15 26.3299 44.95C26.6899 44.75 27.0299 44.54 27.3499 44.32C27.6699 44.08 27.8399 43.91 27.8599 43.81H27.8899L27.8599 43.66L27.8899 43.51C27.8699 43.51 27.8299 43.51 27.7699 43.51C27.7099 43.49 27.6599 43.48 27.6199 43.48C27.3599 43.66 27.0999 43.83 26.8399 43.99C26.5799 44.15 26.3199 44.31 26.0599 44.47H25.9999L25.9699 44.71C25.8499 44.79 25.7599 44.89 25.6999 45.01C25.6399 45.11 25.5899 45.23 25.5499 45.37ZM30.1099 45.28L29.9299 45.22L29.8999 45.04L30.1999 44.95L30.2299 45.04L30.1099 45.28ZM28.7805 49.36C28.5605 49.36 28.4005 49.26 28.3005 49.06C28.2205 48.88 28.1805 48.7 28.1805 48.52C28.1805 48 28.3005 47.46 28.5405 46.9C28.8005 46.34 29.0505 45.83 29.2905 45.37C29.5505 44.89 29.6805 44.52 29.6805 44.26C29.6805 44.14 29.6105 44.08 29.4705 44.08C29.4105 44.08 29.3205 44.1 29.2005 44.14V44.02L29.9205 43.18V43.15C30.0205 43.05 30.1105 42.95 30.1905 42.85C30.2705 42.75 30.3505 42.66 30.4305 42.58L30.7005 42.4C30.9205 42.42 31.1305 42.48 31.3305 42.58C31.5505 42.66 31.6905 42.83 31.7505 43.09L31.7205 43.12C31.7405 43.28 31.6705 43.45 31.5105 43.63C31.3505 43.81 31.2105 43.95 31.0905 44.05C30.9705 44.27 30.8305 44.48 30.6705 44.68C30.5305 44.86 30.4005 45.06 30.2805 45.28V45.58L30.1605 45.82H30.1005C30.0405 45.94 29.9805 46.07 29.9205 46.21C29.8805 46.35 29.8605 46.5 29.8605 46.66L30.0105 46.9C30.0705 46.84 30.1805 46.75 30.3405 46.63C30.5205 46.49 30.6805 46.35 30.8205 46.21C30.9605 46.07 31.0305 45.97 31.0305 45.91L31.3605 45.61C31.4605 45.31 31.6805 44.99 32.0205 44.65C32.3605 44.29 32.6505 44.01 32.8905 43.81L32.9805 43.57C33.1005 43.51 33.2205 43.44 33.3405 43.36C33.4805 43.28 33.6205 43.24 33.7605 43.24C33.9205 43.24 34.0605 43.28 34.1805 43.36C34.3205 43.44 34.4605 43.52 34.6005 43.6C34.6005 43.68 34.6005 43.78 34.6005 43.9C34.6205 44 34.6305 44.1 34.6305 44.2C34.6305 44.52 34.5405 44.82 34.3605 45.1C34.1805 45.38 34.0005 45.67 33.8205 45.97C33.6405 46.27 33.5505 46.64 33.5505 47.08C33.5505 47.14 33.5505 47.28 33.5505 47.5C33.5705 47.7 33.6005 47.9 33.6405 48.1C33.7005 48.28 33.7905 48.37 33.9105 48.37L34.8705 47.86H34.9305C34.9705 47.74 35.0405 47.63 35.1405 47.53C35.2605 47.43 35.3905 47.38 35.5305 47.38L35.5605 47.41C35.5605 47.51 35.4705 47.66 35.2905 47.86C35.1305 48.06 34.9505 48.25 34.7505 48.43C34.5705 48.61 34.4405 48.74 34.3605 48.82C34.2805 48.84 34.1905 48.86 34.0905 48.88C33.9905 48.88 33.8905 48.9 33.7905 48.94L33.7005 48.79C33.2605 48.75 32.8905 48.6 32.5905 48.34C32.3105 48.06 32.1705 47.7 32.1705 47.26C32.1705 47.12 32.2005 46.87 32.2605 46.51C32.3205 46.13 32.3905 45.76 32.4705 45.4C32.5705 45.04 32.6405 44.79 32.6805 44.65C32.4405 44.81 32.2105 45.06 31.9905 45.4C31.7705 45.72 31.5705 45.99 31.3905 46.21C31.1905 46.29 30.9805 46.5 30.7605 46.84C30.5605 47.16 30.3505 47.52 30.1305 47.92C29.9105 48.3 29.6905 48.64 29.4705 48.94C29.2505 49.22 29.0205 49.36 28.7805 49.36Z" fill="#613373"/>
<path d="M47.7 50.15C47.28 50.15 46.9183 49.975 46.615 49.625C46.3117 49.2983 46.16 48.9133 46.16 48.47C46.16 48.1433 46.2883 47.6067 46.545 46.86C46.825 46.1133 47.1517 45.3083 47.525 44.445C47.9217 43.5583 48.295 42.7183 48.645 41.925C48.995 41.1317 49.2517 40.525 49.415 40.105C49.1817 40.4083 48.9367 40.7583 48.68 41.155C48.4233 41.5517 48.0967 41.82 47.7 41.96C46.9767 43.15 45.9617 44.2 44.655 45.11C43.3483 46.02 42.065 46.7783 40.805 47.385L40.595 47.245L40.455 47.35L40.28 47.385L40.49 47.56C40.14 47.6767 39.79 47.7467 39.44 47.77C39.09 47.8167 38.74 47.84 38.39 47.84C38.2967 47.7233 38.18 47.6183 38.04 47.525C37.9 47.4317 37.7367 47.385 37.55 47.385C37.41 47.2683 37.2817 47.14 37.165 47C37.0717 46.8833 36.955 46.7783 36.815 46.685C36.605 46.405 36.5 46.09 36.5 45.74C36.5 45.53 36.5583 45.25 36.675 44.9C36.7917 44.55 36.92 44.2 37.06 43.85C37.2 43.5 37.305 43.2083 37.375 42.975L37.515 43.08L37.725 42.8V42.695L37.55 42.905L37.515 42.835L37.585 42.485L38.075 42.17L37.935 42.03C38.2617 41.1433 38.705 40.3383 39.265 39.615C39.825 38.8683 40.2917 38.075 40.665 37.235L41.12 37.095L41.155 36.955L40.945 36.57C40.945 36.3833 41.0033 36.2433 41.12 36.15C41.2367 36.0567 41.3767 35.9983 41.54 35.975L41.33 35.87L41.295 35.835L41.54 35.555L41.61 35.695L41.855 35.45L41.68 35.205C41.7967 35.0417 41.8667 34.8667 41.89 34.68C41.9133 34.47 41.925 34.2717 41.925 34.085C42.3683 33.5483 42.6367 33.0233 42.73 32.51C42.8233 31.9733 42.8933 31.3783 42.94 30.725L42.73 30.55C42.1467 30.5733 41.5983 30.6667 41.085 30.83C40.595 30.9933 40.105 31.2033 39.615 31.46C39.055 31.74 38.67 32.0083 38.46 32.265C38.2733 32.5217 38.11 32.7783 37.97 33.035C37.8533 33.2917 37.62 33.5833 37.27 33.91C37.0833 34.0733 36.8267 34.225 36.5 34.365C36.1967 34.4817 36.08 34.7033 36.15 35.03C35.4733 35.2633 35.0417 35.6833 34.855 36.29C34.6917 36.8967 34.61 37.5033 34.61 38.11C34.5867 38.1333 34.5633 38.18 34.54 38.25C34.54 38.32 34.5283 38.3783 34.505 38.425C34.295 38.215 34.1433 37.8767 34.05 37.41C33.98 36.92 33.945 36.5233 33.945 36.22C33.945 35.7067 34.1433 35.17 34.54 34.61C34.9367 34.0267 35.45 33.4667 36.08 32.93C36.7333 32.37 37.4217 31.8683 38.145 31.425C38.8683 30.9817 39.5683 30.6317 40.245 30.375C40.9217 30.095 41.4933 29.955 41.96 29.955C42.38 29.955 42.8583 30.06 43.395 30.27C43.955 30.4567 44.4333 30.7367 44.83 31.11C45.25 31.4833 45.46 31.915 45.46 32.405C45.46 32.6383 45.3433 33.0233 45.11 33.56C44.9 34.0733 44.62 34.6683 44.27 35.345C43.92 35.9983 43.5467 36.6633 43.15 37.34C42.7767 38.0167 42.4267 38.635 42.1 39.195C41.7967 39.7317 41.5633 40.1283 41.4 40.385L40.7 40.42L41.015 40.63L41.12 40.595L40.77 40.875V41.015C40.77 41.2483 40.7 41.4583 40.56 41.645C40.42 41.8083 40.2917 41.96 40.175 42.1L40 42.555L39.65 42.45L39.615 42.59L39.755 42.765L39.545 42.87V43.185L39.23 43.71L38.845 44.06L38.95 44.27C38.8333 44.4567 38.705 44.655 38.565 44.865C38.425 45.075 38.3317 45.2967 38.285 45.53L38.145 45.46L37.795 45.845L37.935 45.985L37.83 46.195L38.075 46.895C38.1917 46.9417 38.3083 46.9883 38.425 47.035C38.5417 47.0817 38.6583 47.105 38.775 47.105C39.2417 47.105 39.7317 46.9883 40.245 46.755C40.7583 46.5217 41.2133 46.2883 41.61 46.055H41.68L41.89 45.74L42.135 45.565L42.345 45.74C42.625 45.6933 42.8 45.5417 42.87 45.285C43.43 44.9117 44.0017 44.4333 44.585 43.85C45.1917 43.2667 45.775 42.6717 46.335 42.065C46.9183 41.435 47.4667 40.8517 47.98 40.315C48.5167 39.7783 49.0067 39.37 49.45 39.09C49.5433 38.7867 49.695 38.3317 49.905 37.725C50.1383 37.1183 50.395 36.4767 50.675 35.8C50.955 35.1233 51.235 34.505 51.515 33.945C51.795 33.3617 52.0167 32.965 52.18 32.755C52.3433 32.7083 52.5067 32.6617 52.67 32.615C52.8567 32.5683 53.0317 32.545 53.195 32.545C53.4983 32.545 53.8367 32.6267 54.21 32.79C54.6067 32.93 54.805 33.1867 54.805 33.56C54.805 33.8633 54.6533 34.3417 54.35 34.995C54.0467 35.6483 53.685 36.3483 53.265 37.095C52.845 37.8417 52.4367 38.5417 52.04 39.195C51.6433 39.825 51.34 40.2917 51.13 40.595L51.34 41.05C51.1067 41.3533 50.8967 41.68 50.71 42.03C50.5233 42.38 50.2783 42.6833 49.975 42.94C49.7883 43.64 49.485 44.3517 49.065 45.075C48.6683 45.7983 48.47 46.5333 48.47 47.28L48.61 47.595C48.7967 47.5483 48.995 47.4783 49.205 47.385C49.415 47.315 49.59 47.1867 49.73 47L49.975 46.93L50.29 46.965C50.7567 46.615 51.2233 46.2767 51.69 45.95C52.18 45.6 52.6467 45.25 53.09 44.9L53.23 44.97C52.3667 45.7633 51.5033 46.58 50.64 47.42C49.7767 48.26 48.9483 49.1233 48.155 50.01C48.1083 50.0333 48.0383 50.0567 47.945 50.08C47.8517 50.1267 47.77 50.15 47.7 50.15ZM53.65 44.725L53.51 44.62L53.615 44.34L53.72 44.305L53.825 44.445L53.65 44.725ZM43.43 44.655V44.62L43.605 44.34L43.675 44.41L43.64 44.55L43.43 44.655ZM48.928 52.11C48.7647 52.11 48.613 52.0517 48.473 51.935C48.333 51.8417 48.263 51.7017 48.263 51.515C48.263 51.235 48.3913 50.8967 48.648 50.5C48.8813 50.1033 49.1847 49.695 49.558 49.275C49.908 48.855 50.2463 48.4467 50.573 48.05C50.8997 47.6767 51.133 47.35 51.273 47.07L51.588 46.86H51.728L51.483 47.14L51.518 47.245C51.658 47.1517 51.8797 46.9533 52.183 46.65C52.5097 46.3233 52.813 45.9967 53.093 45.67C53.3963 45.3433 53.5713 45.1217 53.618 45.005L54.073 44.655C54.1197 44.3983 54.3063 44.0833 54.633 43.71C54.983 43.3367 55.3797 42.94 55.823 42.52C56.2663 42.0767 56.6863 41.6567 57.083 41.26C57.503 40.8633 57.7947 40.525 57.958 40.245L57.608 39.86C57.3513 39.8833 57.1413 39.7317 56.978 39.405C56.838 39.0783 56.7213 38.6817 56.628 38.215C56.5347 37.7483 56.4647 37.305 56.418 36.885C56.3713 36.465 56.3247 36.1733 56.278 36.01L56.103 36.36L55.823 35.415C55.613 35.415 55.4613 35.2867 55.368 35.03C55.2747 34.7733 55.2163 34.47 55.193 34.12C55.1697 33.77 55.1463 33.455 55.123 33.175C55.0997 32.895 55.0297 32.7317 54.913 32.685L54.808 32.335L54.948 31.74L56.313 31.355L56.173 30.445L56.208 30.48C56.2547 30.0833 56.1613 29.7217 55.928 29.395C55.718 29.0683 55.543 28.7183 55.403 28.345C55.403 28.1583 55.4847 27.8783 55.648 27.505C55.8113 27.1083 56.0097 26.8983 56.243 26.875L56.453 26.945C56.663 27.5983 56.8613 28.275 57.048 28.975C57.2347 29.675 57.3747 30.3867 57.468 31.11H57.643C57.8763 31.11 58.028 31.1683 58.098 31.285C58.168 31.4017 58.203 31.565 58.203 31.775C58.203 32.4283 58.3197 33.0933 58.553 33.77C58.7863 34.4233 59.008 35.0767 59.218 35.73C59.4513 36.3833 59.533 37.0367 59.463 37.69L59.743 38.355C60.0697 38.075 60.373 37.7717 60.653 37.445C60.9563 37.1183 61.283 36.8033 61.633 36.5L61.598 36.465L62.683 35.45L62.648 35.415L62.788 35.24V35.275C63.7913 34.4117 64.7947 33.5017 65.798 32.545C66.8247 31.565 67.898 30.6667 69.018 29.85C70.138 29.0333 71.3513 28.4383 72.658 28.065C72.8213 28.205 72.903 28.4033 72.903 28.66C72.903 28.8933 72.938 29.1033 73.008 29.29C72.8913 29.4767 72.798 29.6867 72.728 29.92C72.6813 30.1533 72.623 30.3867 72.553 30.62L72.238 30.305H72.203L71.888 30.655L71.643 30.69L71.468 30.865C70.908 31.0517 70.3713 31.2617 69.858 31.495C69.368 31.705 68.878 31.9617 68.388 32.265H68.283C68.6563 31.7517 69.0647 31.32 69.508 30.97L69.683 30.655C69.3097 30.6783 68.7963 30.935 68.143 31.425C67.4897 31.915 66.7663 32.5333 65.973 33.28C65.203 34.0033 64.4213 34.7617 63.628 35.555C62.8347 36.3483 62.123 37.0717 61.493 37.725C60.863 38.3783 60.3847 38.8683 60.058 39.195C60.5947 40.4317 61.0963 41.505 61.563 42.415C62.0297 43.325 62.5313 44.1533 63.068 44.9C63.628 45.6467 64.2697 46.3817 64.993 47.105C65.7163 47.8283 66.603 48.61 67.653 49.45C68.4697 49.5667 69.2397 49.7417 69.963 49.975C70.7097 50.2083 71.503 50.325 72.343 50.325C72.8097 50.325 73.2763 50.2783 73.743 50.185C74.233 50.0917 74.7113 50.0567 75.178 50.08C75.0147 50.2667 74.688 50.4417 74.198 50.605C73.7313 50.7917 73.2413 50.9433 72.728 51.06C72.238 51.1767 71.8647 51.235 71.608 51.235C71.4913 51.235 71.2347 51.2 70.838 51.13C70.4647 51.0833 70.0447 51.0133 69.578 50.92C69.1347 50.8267 68.738 50.7333 68.388 50.64C68.0613 50.5467 67.8747 50.465 67.828 50.395L67.933 50.22C67.8397 49.94 67.6297 49.765 67.303 49.695C66.9763 49.625 66.6147 49.5783 66.218 49.555C65.8447 49.555 65.5413 49.5083 65.308 49.415L65.098 49.135H64.958C64.6313 49.135 64.3397 49.0417 64.083 48.855C63.8497 48.6683 63.6397 48.4583 63.453 48.225L62.788 48.295L62.613 47.91V47.665L62.403 47.42L62.193 47.7C61.8897 47.5833 61.5513 47.3967 61.178 47.14C60.828 46.9067 60.6297 46.6033 60.583 46.23C60.443 46.09 60.2213 45.775 59.918 45.285C59.6147 44.7717 59.3113 44.2467 59.008 43.71C58.7047 43.1733 58.483 42.7767 58.343 42.52L58.553 42.03L58.378 41.785L58.273 41.82L57.993 41.26C57.7363 41.5167 57.328 41.9367 56.768 42.52C56.208 43.08 55.5897 43.7217 54.913 44.445C54.2597 45.145 53.618 45.8567 52.988 46.58C52.3813 47.28 51.8797 47.9217 51.483 48.505C51.0863 49.0883 50.888 49.52 50.888 49.8L50.923 49.87C51.1797 49.7767 51.4363 49.6833 51.693 49.59C51.973 49.52 52.218 49.3917 52.428 49.205L52.708 49.1L52.988 49.135C53.478 48.6683 54.108 48.2717 54.878 47.945C55.648 47.6183 56.3363 47.28 56.943 46.93L57.083 47C57.0597 47.0233 56.803 47.1983 56.313 47.525C55.8463 47.8517 55.2513 48.2483 54.528 48.715C53.828 49.205 53.1163 49.695 52.393 50.185C51.693 50.675 51.098 51.0833 50.608 51.41C50.0947 51.7367 49.8263 51.9117 49.803 51.935C49.4997 52.0517 49.208 52.11 48.928 52.11ZM53.093 45.285L53.128 45.11C53.3847 44.8067 53.6647 44.5733 53.968 44.41C53.8513 44.5733 53.7113 44.725 53.548 44.865C53.408 45.005 53.2563 45.145 53.093 45.285ZM52.078 46.51L51.903 46.475C52.0197 46.3583 52.148 46.2183 52.288 46.055C52.4513 45.8683 52.6147 45.7283 52.778 45.635L52.848 45.775C52.778 45.8683 52.6847 45.95 52.568 46.02C52.4747 46.09 52.3813 46.16 52.288 46.23L52.218 46.405L52.078 46.51Z" fill="#2B053D"/>
</svg>
